{"title":"Scream.4.2011.XviD.Feel-Free","uid":6326743,"size":839963749,"categoryP":"video","categoryS":"movies","magnet":"?xt=urn:btih:5d84ce835acc33d62879cda155c5cb0a90235a71&amp;dn=Scream.4.2011.XviD.Feel-Free&amp;tr=udp%3A%2F%2Ftracker.openbittorrent.com%3A80&amp;tr=udp%3A%2F%2Fopen.demonii.com%3A1337&amp;tr=udp%3A%2F%2Ftracker.coppersurfer.tk%3A6969&amp;tr=udp%3A%2F%2Fexodus.desync.com%3A6969","seeders":1,"leechers":0,"uploader":"hiest","files":9,"time":1303138964,"description":"Genre:Horror | Mystery | Thriller\n Language:English\n IMDb:http://www.imdb.com/title/tt1262416/\n Source:Russian/Imagine Thanks!\n\n Format : AVI\n Format/Info : Audio Video Interleave\n File size : 800 MiB\n Duration : 1h 39mn\n Overall bit rate : 1 126 Kbps\n\n Video\n ID : 0\n Format : MPEG-4 Visual\n Format profile : Advanced Simple@L5\n Format settings, BVOP : Yes\n Format settings, QPel : No\n Format settings, GMC : No warppoints\n Format settings, Matrix : Default (H.263)\n Muxing mode : Packed bitstream\n Codec ID : XVID\n Codec ID/Hint : XviD\n Duration : 1h 39mn\n Bit rate : 988 Kbps\n Width : 688 pixels\n Height : 288 pixels\n Display aspect ratio : 2.35:1\n Frame rate : 25.000 fps\n Color space : YUV\n Chroma subsampling : 4:2:0\n Bit depth : 8 bits\n Scan type : Progressive\n Bits/(Pixel*Frame) : 0.200\n Stream size : 702 MiB (88%)\n Writing library : XviD 1.2.1 (UTC 2008-12-04)\n\n Audio\n ID : 1\n Format : MPEG Audio\n Format version : Version 1\n Format profile : Layer 3\n Codec ID : 55\n Codec ID/Hint : MP3\n Duration : 1h 39mn\n Bit rate mode : Constant\n Bit rate : 128 Kbps\n Channel(s) : 2 channels\n Sampling rate : 44.1 KHz\n Stream size : 90.9 MiB (11%)\n Alignment : Split accross interleaves\n Interleave, duration : 40 ms (1.00 video frame)\n Interleave, preload duration : 500 ms\n\n\n\n Plot:\n Ten years have passed, and Sidney Prescott, who has put herself back together thanks in part to her writing, is visited by the Ghostface Killer.\n","torrent":{"xt":"urn:btih:5d84ce835acc33d62879cda155c5cb0a90235a71","amp;dn":"Scream.4.2011.XviD.Feel-Free","amp;tr":["udp%3A%2F%2Ftracker.openbittorrent.com%3A80","udp%3A%2F%2Fopen.demonii.com%3A1337","udp%3A%2F%2Ftracker.coppersurfer.tk%3A6969","udp%3A%2F%2Fexodus.desync.com%3A6969"],"infoHash":"5d84ce835acc33d62879cda155c5cb0a90235a71","infoHashBuffer":{"type":"Buffer","data":[93,132,206,131,90,204,51,214,40,121,205,161,85,197,203,10,144,35,90,113]},"announce":[],"urlList":[]}}